<svg xmlns="http://www.w3.org/2000/svg" viewBox="0 0 1200 630" role="img" aria-label="Saaf — clean email lists, fast.">
  <defs>
    <linearGradient id="bg" x1="0" y1="0" x2="1" y2="1">
      <stop offset="0%" stop-color="#0e0e0e"/>
      <stop offset="100%" stop-color="#050505"/>
    </linearGradient>
    <radialGradient id="halo" cx="0.85" cy="0.15" r="0.7">
      <stop offset="0%" stop-color="#c3f400" stop-opacity="0.18"/>
      <stop offset="100%" stop-color="#c3f400" stop-opacity="0"/>
    </radialGradient>
  </defs>

  <rect width="1200" height="630" fill="url(#bg)"/>
  <rect width="1200" height="630" fill="url(#halo)"/>

  <g opacity="0.05" stroke="#ffffff" stroke-width="1" fill="none">
    <path d="M0 100 L1200 100 M0 200 L1200 200 M0 300 L1200 300 M0 400 L1200 400 M0 500 L1200 500"/>
    <path d="M100 0 L100 630 M300 0 L300 630 M500 0 L500 630 M700 0 L700 630 M900 0 L900 630 M1100 0 L1100 630"/>
  </g>

  <g transform="translate(96 86)">
    <rect width="56" height="56" rx="14" fill="#0e0e0e" stroke="#c3f400" stroke-opacity="0.35" stroke-width="1.5"/>
    <path d="M12 29 L 22 39 L 45 16" fill="none" stroke="#c3f400" stroke-width="5" stroke-linecap="round" stroke-linejoin="round"/>
  </g>
  <text x="166" y="124" fill="#c3f400" font-family="'Space Grotesk', 'Inter', system-ui, sans-serif" font-size="22" font-weight="700" letter-spacing="6">SAAF · CLEAN EMAIL LISTS · FREE TIER</text>

  <text x="96" y="270" fill="#fafafa" font-family="'Space Grotesk', 'Inter', system-ui, sans-serif" font-size="120" font-weight="700" letter-spacing="-6">Stop sending email</text>
  <text x="96" y="390" fill="#c3f400" font-family="'Space Grotesk', 'Inter', system-ui, sans-serif" font-size="120" font-weight="700" letter-spacing="-6">to dead addresses.</text>

  <text x="96" y="475" fill="#a3a3a3" font-family="Inter, system-ui, sans-serif" font-size="28" font-weight="400" letter-spacing="-0.5">
    Paste a list. We check every address against the real mail server. You get a clean CSV back.
  </text>

  <g transform="translate(96 540)" font-family="'JetBrains Mono', 'Inter', system-ui, monospace" font-size="18" font-weight="500" fill="#a3a3a3">
    <text x="0" y="20">FREE TIER · 100K/JOB</text>
    <text x="260" y="20" fill="#525252">·</text>
    <text x="286" y="20">DNS + SMTP</text>
    <text x="446" y="20" fill="#525252">·</text>
    <text x="472" y="20">OPEN SOURCE</text>
    <text x="654" y="20" fill="#525252">·</text>
    <text x="680" y="20">SELF-HOST READY</text>
  </g>

  <text x="1104" y="572" text-anchor="end" fill="#525252" font-family="'JetBrains Mono', 'Inter', system-ui, monospace" font-size="16" font-weight="500" letter-spacing="2">SAAF.EMAIL</text>
</svg>
